HIERARCHY
ROOT root
{
	OFFSET	0	13.1	24.9
	CHANNELS 6  Xposition Yposition Zposition Xrotation Yrotation Zrotation
	JOINT spine_1
	{
		OFFSET	0	9.99999	0
		CHANNELS 3  Xrotation Yrotation Zrotation
		JOINT spine_2
		{
			OFFSET	0	112	-10
			CHANNELS 3  Xrotation Yrotation Zrotation
			JOINT spine_3
			{
				OFFSET	0	206.5	19.3
				CHANNELS 3  Xrotation Yrotation Zrotation
				JOINT spine_4
				{
					OFFSET	0	110.4	14.6
					CHANNELS 3  Xrotation Yrotation Zrotation
					JOINT neck_1
					{
						OFFSET	0	71.8	-50.3
						CHANNELS 3  Xrotation Yrotation Zrotation
						JOINT neck_2
						{
							OFFSET	0	86.2	-25.8
							CHANNELS 3  Xrotation Yrotation Zrotation
							JOINT head_ee
							{
								OFFSET	0	179.8	-8.7
								CHANNELS 3  Xrotation Yrotation Zrotation
								End Site
								{
									OFFSET	1	0	0
								}
							}
						}
					}
					JOINT left_clavicle
					{
						OFFSET	-43.2	22.4	-70.8
						CHANNELS 3  Xrotation Yrotation Zrotation
						JOINT left_shoulder
						{
							OFFSET	-93.9	-5.79999	48.7
							CHANNELS 3  Xrotation Yrotation Zrotation
							JOINT left_elbow
							{
								OFFSET	-291.4	-30.8	15.2
								CHANNELS 3  Xrotation Yrotation Zrotation
								JOINT left_lowarm_twist
								{
									OFFSET	-110.7	-3.89999	13.6
									CHANNELS 3  Xrotation Yrotation Zrotation
									JOINT left_hand
									{
										OFFSET	-110.7	-3.89999	13.6
										CHANNELS 3  Xrotation Yrotation Zrotation
										JOINT left_ee
										{
											OFFSET	-80.8	-5.10001	12.1
											CHANNELS 3  Xrotation Yrotation Zrotation
											End Site
											{
												OFFSET	1	0	0
											}
										}
									}
								}
							}
						}
					}
					JOINT right_clavicle
					{
						OFFSET	43.2	22.4	-70.8
						CHANNELS 3  Xrotation Yrotation Zrotation
						JOINT right_shoulder
						{
							OFFSET	93.9	-5.79999	48.7
							CHANNELS 3  Xrotation Yrotation Zrotation
							JOINT right_elbow
							{
								OFFSET	291.4	-30.8	15.2
								CHANNELS 3  Xrotation Yrotation Zrotation
								JOINT right_lowarm_twist
								{
									OFFSET	110.7	-3.89999	13.6
									CHANNELS 3  Xrotation Yrotation Zrotation
									JOINT right_hand
									{
										OFFSET	110.7	-3.89999	13.6
										CHANNELS 3  Xrotation Yrotation Zrotation
										JOINT right_ee
										{
											OFFSET	80.8	-5.10001	12.1
											CHANNELS 3  Xrotation Yrotation Zrotation
											End Site
											{
												OFFSET	1	0	0
											}
										}
									}
								}
							}
						}
					}
				}
			}
		}
	}
	JOINT left_hip
	{
		OFFSET	-82.8	-127.5	0.300001
		CHANNELS 3  Xrotation Yrotation Zrotation
		JOINT left_knee
		{
			OFFSET	-28.2	-396.7	2.2
			CHANNELS 3  Xrotation Yrotation Zrotation
			JOINT left_ankle
			{
				OFFSET	-11.7	-411.3	35.4
				CHANNELS 3  Xrotation Yrotation Zrotation
				JOINT left_toes
				{
					OFFSET	0	-60	-88.6
					CHANNELS 3  Xrotation Yrotation Zrotation
					JOINT left_foot_ee
					{
						OFFSET	-22.5	-16.5	-42.2
						CHANNELS 3  Xrotation Yrotation Zrotation
						End Site
						{
							OFFSET	1	0	0
						}
					}
				}
			}
		}
	}
	JOINT right_hip
	{
		OFFSET	82.8	-127.5	0.300001
		CHANNELS 3  Xrotation Yrotation Zrotation
		JOINT right_knee
		{
			OFFSET	28.2	-396.7	2.2
			CHANNELS 3  Xrotation Yrotation Zrotation
			JOINT right_ankle
			{
				OFFSET	11.7	-411.3	35.4
				CHANNELS 3  Xrotation Yrotation Zrotation
				JOINT right_toes
				{
					OFFSET	0	-60	-88.6
					CHANNELS 3  Xrotation Yrotation Zrotation
					JOINT right_foot_ee
					{
						OFFSET	22.5	-16.5	-42.2
						CHANNELS 3  Xrotation Yrotation Zrotation
						End Site
						{
							OFFSET	1	0	0
						}
					}
				}
			}
		}
	}
}
MOTION
Frames: 6
Frame Time: 0.02
3216.46 717.477 -1509.23 20.1221 66.6835 -26.4198 -3.60177 1.18812 2.94318 -3.59751 0.998515 3.01273 -3.5361 0.14842 3.17028 -3.54954 0.647 3.10716 -16.9876 -16.9046 9.90535 -18.5934 -37.8892 2.38358 -0.0 0.0 -0.0 -0.355121 23.3861 2.21955 -6.63116 -18.647 68.3088 1.5113 -36.818 0.503032 -47.2698 -3.75533 4.53254 -1.35032 8.6247 -5.13899 -0.0 0.0 -0.0 14.2301 27.8599 -28.2963 2.17696 13.8076 -58.5972 0.366822 10.2992 -0.0330584 58.4279 1.63598 6.96102 -4.19512 -28.7763 11.4511 0.0 0.0 0.0 3.45394 11.0629 0.289039 -39.9565 -0.464004 5.9922 31.5915 15.5157 -4.11248 -18.3075 0.0 0.0 -0.0 0.0 -0.0 -3.08668 -21.8903 16.6226 -18.5989 -0.309681 -2.82485 34.4278 31.623 5.44545 -3.39459 0.0 0.0 0.0 0.0 0.0 
3206.97 714.986 -1510.53 21.8493 66.039 -28.3526 -3.7142 1.24184 3.04482 -3.70965 1.04567 3.11758 -3.64303 0.15947 3.28424 -3.65744 0.675882 3.21796 -14.5157 -16.7956 10.6803 -15.6058 -38.3943 4.17205 -0.0 0.0 -0.0 -0.916266 22.9843 1.39606 -7.54271 -16.9098 70.3256 1.34797 -33.7311 0.408677 -47.4061 -3.77096 4.54041 -1.39673 9.12861 -5.20898 -0.0 0.0 -0.0 14.4945 28.0115 -28.8936 4.21696 14.8249 -58.5987 0.420644 11.7708 -0.0433611 58.1632 1.61316 6.93592 -4.35515 -28.9508 12.2191 0.0 0.0 0.0 5.18032 11.3166 -0.049656 -39.8027 -0.45426 5.97065 31.5449 15.6123 -4.10868 -18.2872 0.0 0.0 -0.0 0.0 -0.0 -4.5658 -26.1168 17.6851 -16.1426 -0.321625 -2.4482 34.0792 32.9076 5.49963 -3.56192 0.0 0.0 0.0 0.0 0.0 
3193.62 714.277 -1508.88 23.2245 65.6219 -29.8988 -3.75344 1.11991 3.0142 -3.74886 0.925936 3.07927 -3.68972 0.0518272 3.21493 -3.70371 0.558657 3.16649 -13.1874 -16.5424 10.9988 -13.9602 -38.2334 5.13612 -0.0 0.0 -0.0 -1.31805 23.0099 0.844434 -9.01476 -15.6439 71.9404 1.25215 -31.8091 0.356805 -47.6149 -3.79494 4.55238 -1.45436 9.8185 -5.26392 -0.0 0.0 -0.0 14.5268 27.9979 -28.9714 6.49186 15.8869 -58.6234 0.475388 13.2515 -0.0552213 58.6495 1.65518 6.98196 -4.16432 -28.7826 11.2771 0.0 0.0 0.0 8.44099 10.8507 -1.13515 -37.7545 -0.330123 5.68134 30.9091 15.4987 -4.03908 -18.5885 0.0 0.0 -0.0 0.0 -0.0 -6.05955 -27.8052 18.8948 -14.0241 -0.318953 -2.12318 33.3933 33.6946 5.47864 -3.90762 0.0 0.0 0.0 0.0 0.0 
3182.84 709.622 -1510.63 24.7755 66.8601 -31.9932 -3.79254 1.06044 3.07795 -3.78768 0.862528 3.13911 -3.73076 -0.0279317 3.25521 -3.74522 0.486249 3.21885 -12.8644 -15.8152 11.1538 -13.4732 -36.9849 5.69712 -0.0 0.0 -0.0 -2.12605 22.9676 -0.280456 -9.93734 -14.3477 73.5184 1.11677 -28.9512 0.288318 -47.2079 -3.74824 4.52896 -1.56453 10.4216 -5.69304 -0.0 0.0 -0.0 14.555 27.9931 -29.0381 7.92609 16.5256 -58.8529 0.514705 14.3041 -0.0645853 58.8105 1.66918 6.99712 -4.2483 -28.7723 11.7474 0.0 0.0 0.0 8.27063 10.9931 -0.687506 -38.6759 -0.384685 5.81203 31.7284 13.8174 -4.10847 -18.7397 0.0 0.0 -0.0 0.0 -0.0 -5.65019 -31.6584 19.1807 -14.1349 -0.31939 -2.14018 35.4777 33.272 5.68892 -3.85457 0.0 0.0 0.0 0.0 0.0 
3174.81 704.006 -1511.58 25.2856 67.0767 -32.4848 -3.63458 1.10206 3.03453 -3.62991 0.906832 3.09842 -3.57161 0.0348559 3.22809 -3.58573 0.543973 3.18216 -11.8919 -16.2992 11.5145 -12.3497 -38.2084 6.27393 -0.0 0.0 -0.0 -2.21726 23.1754 -0.370579 -11.4395 -13.7417 73.8992 1.01056 -26.592 0.238816 -47.7379 -3.80908 4.55939 -1.48691 10.2782 -5.26115 -0.0 0.0 -0.0 14.6391 27.9175 -29.2464 10.3232 17.6282 -58.8754 0.583501 16.122 -0.0826401 58.412 1.63461 6.95952 -4.11001 -28.5707 11.1151 0.0 0.0 0.0 12.3668 10.1143 -3.29658 -34.4507 -0.151974 5.20608 28.2433 15.2874 -3.74283 -19.3336 0.0 0.0 -0.0 0.0 -0.0 -5.83541 -32.7207 20.1349 -13.6769 -0.317369 -2.06994 34.8451 32.4114 5.55085 -3.76241 0.0 0.0 0.0 0.0 0.0 
3178.35 704.035 -1514.63 23.9066 69.4999 -30.8829 -3.33156 0.851598 2.99183 -3.32683 0.659585 3.0399 -3.28379 -0.172089 3.10581 -3.29711 0.320335 3.09404 -12.4479 -15.9122 12.621 -12.9199 -38.1232 7.27119 -0.0 0.0 -0.0 -2.47641 22.6235 -0.829061 -11.3455 -13.0719 73.7601 0.948279 -25.1614 0.211634 -47.1312 -3.73946 4.52451 -1.35382 9.83716 -4.60842 -0.0 0.0 -0.0 14.5847 27.8808 -29.1239 12.3182 18.5529 -59.2883 0.696294 19.0306 -0.116712 60.0857 1.78156 7.11583 -3.02086 -28.2971 5.31939 0.0 0.0 0.0 15.4388 10.1258 -4.33562 -27.4284 0.133941 4.16705 24.6514 12.0789 -3.30475 -20.4792 0.0 0.0 -0.0 0.0 -0.0 -4.47193 -33.2612 19.1623 -13.3674 -0.315685 -2.02249 36.0702 33.8388 5.80122 -3.01066 0.0 0.0 0.0 0.0 0.0 
